<svg xmlns="http://www.w3.org/2000/svg" viewBox="0 0 1447.83 1416.59"><defs><style>.cls-1,.cls-3{fill:#167fdb;}.cls-2,.cls-4{fill:#b8211a;}.cls-3{font-size:205.68px;font-family:Poppins-Regular, Poppins;}.cls-4{font-size:180px;font-family:Poppins-Light, Poppins;font-weight:300;}</style></defs><g id="Layer_2" data-name="Layer 2"><g id="Layer_1-2" data-name="Layer 1"><path class="cls-1" d="M341,534.67q-32.22-92-59.56-199a917.22,917.22,0,0,1-23.78-129.35c-4-37.31-2.61-77.21,10.18-113.71C296,12.4,375.47-12.36,452.83,5.5,506,17.79,543.34,41.64,594.62,72.55c38.61,23.26,84.07,42.9,126.38,59.72,1.33.55,1.29.77-.16.7A463.8,463.8,0,0,1,563.09,97.58q-41.77-17.4-65-26.73Q446.17,50,392.4,55.37c-59.46,6-81.16,63.06-87.86,114.52q-5.19,39.87-1.09,95.87,3.65,50,8.32,83.08c4.16,29.5,9.39,68,15.46,102.88q11.79,67.62,14.1,82.86a.16.16,0,0,1-.13.19.17.17,0,0,1-.22-.1Z"/><path class="cls-1" d="M631,60.47C679.63,33.91,733.85,12.18,788.94,3q51.51-8.58,97.23,7.36c84.26,29.34,101.48,115.62,94.62,194-5.32,61.12-21.61,124.25-38,184.14a3.24,3.24,0,0,1-1.69,2l-51.67,25.77c-1.56.77-2,.35-1.45-1.29,10.53-28.42,18.24-57.42,25.38-86.87a653.62,653.62,0,0,0,17-109.64c2.37-35.35-1-70.91-13.88-103.58-23.08-58.66-79.64-82.86-139.86-78.5A375.59,375.59,0,0,0,729,42.8q-57,11.49-97.51,19c-2.87.53-3,.09-.48-1.31Z"/><path class="cls-1" d="M856.76,175.88c0,.07-.14.13-.41.14q-12.81,1-21.72,2.17c-11.82,1.58-22.59,4.51-27.52,15.5a61.37,61.37,0,0,0-4.23,13.1,192.84,192.84,0,0,0-3.81,28.93q-.42,8.79-.69,11.77s0,0,0,0-.05,0,0,0a0,0,0,0,0,0-.06s0,0,0,0c-1-16.53-2-34.16-7.07-49.65-5.55-17-21.63-19.19-37.11-20.39-10.61-.84-15.9-1.36-15.9-1.59s5.3-.74,15.9-1.56c15.48-1.21,31.56-3.38,37.12-20.38,5.06-15.48,6.08-33.11,7.11-49.64,0,0,0,0,0,0s.06,0,0-.06,0,0,0,0,0,0,0,0c.18,2,.4,5.91.69,11.76a192.69,192.69,0,0,0,3.78,28.94A62.18,62.18,0,0,0,807.12,158c4.92,11,15.69,13.94,27.51,15.51q8.91,1.2,21.72,2.18c.27,0,.41.07.41.16Z"/><path class="cls-2" d="M128.79,454.17C107.26,525.51,187.72,559.89,241,570.82A511.62,511.62,0,0,0,342,581c80.87.29,162.06-11.4,242-29q21.5-4.7,42.53-10.42,78.8-21.42,135.11-40.86A1484.28,1484.28,0,0,0,912,439.3a826.62,826.62,0,0,0,104-58.55c29.11-19.3,57.46-42.09,74.37-70.67,13.16-22.2,18.26-48,2.34-69.59-16.79-22.8-51.48-36.09-79-41.12a3.3,3.3,0,0,1-2.7-3.4q2.28-48.65-5.89-91.09a.83.83,0,0,1,1-1,289.46,289.46,0,0,1,72.46,30.57c35.48,21.16,59.54,52.18,58.56,95.32-.83,36.29-23.37,73.43-48.13,100.89q-30,33.24-61,56.56a866.41,866.41,0,0,1-110.87,70.9Q804.91,518.36,689,554.33q-47.16,14.61-87.13,25.58a1453.28,1453.28,0,0,1-213.79,41.14,942.63,942.63,0,0,1-187.36,3.29q-15.44-1.26-49.4-8.11C90.8,604.08,6.4,569.92.43,497.2c-6.75-82.34,68.12-152.1,129.06-196.67a809.86,809.86,0,0,1,99.46-62,1.1,1.1,0,0,1,1.6.81q6,43.32,16.07,85.55a2.5,2.5,0,0,1-1,2.65c-41,28-81.94,59.32-107.12,103.58a111.75,111.75,0,0,0-9.68,23.08Z"/><path class="cls-1" d="M1156.26,202.83A168.7,168.7,0,0,1,1210,248.61c52.38,68.39,17.19,143.19-37.58,194.48a529,529,0,0,1-94.2,70C989.75,565.13,897,602.18,798.65,629.29a1444.5,1444.5,0,0,1-340.6,51.61c-72,2.19-143.26-.72-213.14-11.54a589.57,589.57,0,0,1-136-37.69.32.32,0,0,1-.24-.28l-.26-1a.33.33,0,0,1,.41-.4q17.39,4.86,28.32,6.92c66.89,12.53,135.74,15.35,203.78,11.19a1443.59,1443.59,0,0,0,318.46-55.68q58.83-17.25,115.93-37.93a1132.39,1132.39,0,0,0,188.12-88.27c44.78-26.3,90.55-58.93,126.15-95,31.25-31.65,57-67.41,66-110.33a139.34,139.34,0,0,0,0-57.48.5.5,0,0,1,.72-.54Z"/><path class="cls-1" d="M622.65,453.91c21.11,6.65,35.39,29.62,41.83,50.19a1.65,1.65,0,0,1-1.19,2.08L558.16,531a1.06,1.06,0,0,1-1.29-1.16c4-30.68,22.14-89.72,65.78-76Z"/><path class="cls-1" d="M731.24,832.06c27.18,1.45,54.57-66.53,62.19-87.59Q810.65,696.8,824,653.61a2.74,2.74,0,0,1,1.86-1.9l46.78-15.44a1.07,1.07,0,0,1,1.35,1.34Q850.69,714,825.86,776.4c-13.44,33.76-33.94,66.78-64.22,85.11-22.32,13.49-52.16,13.08-66.37-11.63a123.4,123.4,0,0,1-10.69-24.72A1240.93,1240.93,0,0,1,650.44,690.4a1,1,0,0,1,.81-1.2L679.17,684a2.08,2.08,0,0,1,2.45,1.68q9.69,55.94,24.53,111.35c3,11.28,10.2,34.25,25.09,35Z"/><path class="cls-1" d="M495.8,830.26c21.5,3.51,29.49-26.49,33.63-42.15a594.4,594.4,0,0,0,15.88-84.22,1.48,1.48,0,0,1,1.38-1.31l29.17-2.28a1.23,1.23,0,0,1,1.31,1.42,962.42,962.42,0,0,1-23.54,107.35q-5.49,19.44-11.63,35.41c-4.86,12.61-15.85,23.95-29.73,25.59-24.68,2.94-50.54-10.79-65.9-30.41a229.49,229.49,0,0,1-19.9-29.37,576.87,576.87,0,0,1-43.42-100.11.43.43,0,0,1,.39-.57h32a2,2,0,0,1,2.06,1.46c12.52,36.07,29.12,71.81,51.74,100,6.11,7.64,16.14,17.52,26.52,19.2Z"/><text class="cls-3" transform="translate(61.95 1088.73)">Dente Dental </text><text class="cls-4" transform="translate(511.53 1315.07)">Clinic</text></g></g></svg>