<svg xmlns="http://www.w3.org/2000/svg" viewBox="0 0 2043.6 2269.8"><defs><style>.cls-1,.cls-4{fill:#b8211a;}.cls-2,.cls-3{fill:#167fdb;}.cls-3{font-size:325.57px;font-family:Poppins-Regular, Poppins;}.cls-4{font-size:120.17px;font-family:Poppins-Light, Poppins;font-weight:300;}</style></defs><g id="Layer_2" data-name="Layer 2"><g id="Layer_1-2" data-name="Layer 1"><path class="cls-1" d="M1774.12,64.28a1.5,1.5,0,0,0,0-3,1.5,1.5,0,0,0,0,3Z"/><path class="cls-2" d="M1498.37,3a1.5,1.5,0,0,0,0-3,1.5,1.5,0,0,0,0,3Z"/><path class="cls-2" d="M583.48,1137.52q-51-145.63-94.28-314.94-27-105.49-37.64-204.75c-6.34-59.06-4.12-122.22,16.12-180,44.54-127,170.4-166.2,292.86-137.92C844.66,319.36,903.79,357.1,985,406.05c61.11,36.81,133.07,67.9,200,94.52,2.11.87,2,1.21-.25,1.11a734.22,734.22,0,0,1-249.7-56q-66.13-27.57-102.88-42.33-82.2-33.06-167.31-24.5c-94.11,9.43-128.46,99.82-139.06,181.28q-8.22,63.12-1.74,151.75,5.77,79.13,13.18,131.51c6.58,46.68,14.87,107.66,24.47,162.84q18.66,107.05,22.32,131.16a.27.27,0,0,1-.21.31.3.3,0,0,1-.35-.17Z"/><path class="cls-2" d="M1042.55,386.91c77-42,162.8-76.43,250-91q81.53-13.57,153.9,11.65c133.38,46.44,160.62,183,149.77,307.14-8.42,96.74-34.21,196.67-60.1,291.47a5.15,5.15,0,0,1-2.67,3.22l-81.8,40.8c-2.46,1.21-3.22.55-2.29-2,16.67-45,28.87-90.88,40.17-137.5a1034.82,1034.82,0,0,0,26.94-173.55c3.74-55.95-1.6-112.24-22-163.95C1458,380.33,1368.44,342,1273.12,348.92a596.22,596.22,0,0,0-75.46,10q-90.21,18.19-154.35,30.05-6.81,1.26-.76-2.08Z"/><path class="cls-2" d="M1399.9,569.6c0,.11-.22.2-.64.22q-20.28,1.56-34.38,3.44c-18.71,2.49-35.76,7.14-43.56,24.53a97.12,97.12,0,0,0-6.7,20.73,303.92,303.92,0,0,0-6,45.81q-.67,13.9-1.09,18.61c0,.06,0,.08-.08.08s-.07,0-.05.05a.07.07,0,0,0-.08-.09c-.06,0-.08,0-.08-.08-1.6-26.17-3.21-54.07-11.19-78.58-8.78-26.93-34.24-30.38-58.74-32.29q-25.18-2-25.17-2.51t25.17-2.47c24.5-1.91,50-5.35,58.76-32.25,8-24.51,9.63-52.42,11.25-78.59,0-.06,0-.07.08-.07s.09,0,.07-.1,0,0,.06.06.07,0,.07.07c.29,3.14.64,9.35,1.1,18.62a304.92,304.92,0,0,0,6,45.81,98.37,98.37,0,0,0,6.69,20.75c7.78,17.39,24.83,22,43.54,24.55q14.1,1.89,34.38,3.45c.42,0,.64.11.64.25Z"/><path class="cls-1" d="M247.61,1010.1c-34.07,112.93,93.28,167.35,177.61,184.64a810.27,810.27,0,0,0,159.86,16.19c128,.45,256.53-18.06,383.12-45.86q34-7.42,67.31-16.5,124.73-33.9,213.86-64.68a2349.81,2349.81,0,0,0,237.92-97.33A1305.22,1305.22,0,0,0,1652,893.88c46.07-30.54,91-66.62,117.71-111.86,20.83-35.14,28.91-76,3.71-110.15-26.59-36.08-81.49-57.12-125-65.1a5.17,5.17,0,0,1-4.26-5.37q3.58-77-9.33-144.19a1.31,1.31,0,0,1,1.63-1.53,458.08,458.08,0,0,1,114.7,48.39c56.15,33.48,94.24,82.6,92.68,150.88-1.31,57.44-37,116.22-76.18,159.69q-47.48,52.62-96.61,89.53a1372.86,1372.86,0,0,1-175.49,112.24q-177.7,95.3-361.21,152.23-74.65,23.14-137.92,40.49-162.06,44.34-338.4,65.13a1492.91,1492.91,0,0,1-296.57,5.2q-24.43-2-78.2-12.83c-95.77-19.24-229.35-73.31-238.82-188.42-10.67-130.33,107.84-240.76,204.3-311.3a1283.21,1283.21,0,0,1,157.43-98.2,1.74,1.74,0,0,1,2.53,1.29q9.52,68.58,25.45,135.42a4,4,0,0,1-1.63,4.19c-65,44.27-129.71,93.9-169.57,164a177,177,0,0,0-15.32,36.53Z"/><path class="cls-2" d="M1874,612.25a267.08,267.08,0,0,1,85.13,72.48C2042,793,1986.32,911.38,1899.63,992.56q-66.45,62.24-149.12,110.78c-140.1,82.39-286.93,141-442.59,184A2285.24,2285.24,0,0,1,768.79,1369c-113.9,3.46-226.76-1.15-337.37-18.27q-113.7-17.62-215.21-59.65a.51.51,0,0,1-.38-.45l-.42-1.67a.53.53,0,0,1,.66-.62q27.51,7.7,44.82,11c105.89,19.83,214.87,24.3,322.56,17.71a2284.48,2284.48,0,0,0,504.09-88.14q93.12-27.3,183.5-60a1793.58,1793.58,0,0,0,297.78-139.73c70.88-41.63,143.32-93.27,199.68-150.36C1818,828.64,1858.73,772,1872.9,704.1a220.49,220.49,0,0,0-.06-91,.79.79,0,0,1,1.14-.87Z"/><path class="cls-2" d="M1029.34,1009.68c33.41,10.54,56,46.9,66.2,79.45a2.59,2.59,0,0,1-1.87,3.29l-166.41,39.34a1.67,1.67,0,0,1-2-1.84c6.34-48.56,35-142,104.12-120.24Z"/><path class="cls-2" d="M1201.23,1608.26c43,2.29,86.37-105.3,98.44-138.65q27.24-75.43,48.35-143.81a4.32,4.32,0,0,1,3-3l74-24.43a1.7,1.7,0,0,1,2.15,2.11q-36.86,121-76.15,219.69c-21.28,53.45-53.72,105.72-101.66,134.73-35.32,21.35-82.57,20.69-105.06-18.41a195.27,195.27,0,0,1-16.92-39.13,1964.14,1964.14,0,0,1-54-213.31,1.64,1.64,0,0,1,1.28-1.91l44.19-8.25a3.32,3.32,0,0,1,3.88,2.67q15.35,88.55,38.83,176.26c4.74,17.85,16.15,54.21,39.72,55.46Z"/><path class="cls-2" d="M828.54,1605.42c34,5.54,46.69-42,53.24-66.73a939,939,0,0,0,25.13-133.31,2.34,2.34,0,0,1,2.19-2.08l46.17-3.6a2,2,0,0,1,2.08,2.25,1524.49,1524.49,0,0,1-37.26,169.91q-8.69,30.78-18.41,56.05c-7.69,20-25.1,37.92-47.07,40.52-39.06,4.65-80-17.09-104.3-48.14q-19.9-25.53-31.51-46.49a913.81,913.81,0,0,1-68.73-158.47.68.68,0,0,1,.62-.9H701.4a3.15,3.15,0,0,1,3.26,2.32c19.83,57.09,46.1,113.66,81.91,158.27,9.67,12.09,25.54,27.73,42,30.4Z"/><text class="cls-3" transform="translate(0 2025.61)">Dental Clinic</text><text class="cls-4" transform="translate(1101.87 2202.03)">By Sevenunique</text></g></g></svg>