<svg xmlns="http://www.w3.org/2000/svg" viewBox="0 0 2335.67 2378.65"><defs><style>.cls-1,.cls-3{fill:#167fdb;}.cls-2,.cls-4{fill:#b8211a;}.cls-3{font-size:372.11px;}.cls-3,.cls-4{font-family:Poppins-Regular, Poppins;}.cls-4{font-size:264.01px;}</style></defs><g id="Layer_2" data-name="Layer 2"><g id="Layer_1-2" data-name="Layer 1"><path class="cls-1" d="M666.88,967.27q-58.3-166.44-107.76-359.95-30.84-120.57-43-234c-7.25-67.5-4.72-139.68,18.42-205.72C585.43,22.44,729.27-22.37,869.23,10c96.15,22.22,163.74,65.36,256.52,121.3,69.84,42.07,152.08,77.61,228.62,108,2.41,1,2.34,1.39-.28,1.27a839,839,0,0,1-285.39-64Q993.11,145,951.12,128.17q-93.95-37.8-191.23-28C652.34,110.94,613.08,214.26,601,307.35q-9.39,72.15-2,173.44,6.6,90.45,15.06,150.3c7.53,53.36,17,123,28,186.12q21.33,122.35,25.51,149.9a.31.31,0,0,1-.24.36.32.32,0,0,1-.39-.2Z"/><path class="cls-1" d="M1191.55,109.39c88-48,186.07-87.35,285.75-103.95q93.17-15.51,175.89,13.31c152.44,53.09,183.58,209.17,171.18,351-9.63,110.56-39.1,224.78-68.69,333.13a5.91,5.91,0,0,1-3,3.68l-93.5,46.63c-2.81,1.38-3.68.63-2.61-2.34,19-51.42,33-103.87,45.91-157.16a1181.26,1181.26,0,0,0,30.78-198.35c4.28-63.94-1.82-128.28-25.11-187.38-41.76-106.13-144.09-149.91-253-142a682.72,682.72,0,0,0-86.24,11.45q-103.11,20.81-176.41,34.35-7.79,1.42-.87-2.38Z"/><path class="cls-1" d="M1600,318.18c0,.13-.26.24-.73.26q-23.19,1.79-39.3,3.93c-21.39,2.85-40.87,8.16-49.79,28a112,112,0,0,0-7.66,23.7,347.44,347.44,0,0,0-6.88,52.35q-.78,15.9-1.25,21.28c0,.07,0,.09-.09.09s-.09,0-.07.06,0-.11-.08-.11-.09,0-.09-.08c-1.83-29.91-3.67-61.81-12.79-89.82-10-30.77-39.13-34.72-67.14-36.9q-28.78-2.27-28.77-2.87c0-.39,9.61-1.34,28.77-2.83,28-2.18,57.1-6.11,67.16-36.86,9.15-28,11-59.91,12.86-89.82a.07.07,0,0,1,.08-.08c.09,0,.11,0,.09-.11s0,0,.07.06.08,0,.08.09q.49,5.37,1.25,21.28a349.66,349.66,0,0,0,6.84,52.35,112.43,112.43,0,0,0,7.64,23.72c8.9,19.88,28.38,25.21,49.77,28.05q16.13,2.18,39.3,3.95c.47.05.73.13.73.28Z"/><path class="cls-2" d="M283,821.64c-38.94,129.07,106.61,191.27,203,211a926.16,926.16,0,0,0,182.71,18.5c146.3.51,293.19-20.64,437.87-52.41q38.87-8.5,76.93-18.86,142.56-38.74,244.43-73.92a2687.35,2687.35,0,0,0,271.93-111.24,1492.36,1492.36,0,0,0,188.21-105.94c52.65-34.9,104-76.14,134.54-127.84,23.81-40.17,33-86.83,4.24-125.9-30.39-41.24-93.14-65.28-142.86-74.39a5.94,5.94,0,0,1-4.87-6.14q4.1-88-10.66-164.81a1.49,1.49,0,0,1,1.86-1.74,523.41,523.41,0,0,1,131.09,55.3c64.18,38.27,107.72,94.41,105.93,172.45-1.5,65.64-42.27,132.83-87.07,182.51Q1966,658.39,1909.86,700.58a1568.56,1568.56,0,0,1-200.57,128.27q-203.11,108.93-412.84,174-85.34,26.45-157.63,46.27-185.22,50.69-386.77,74.44a1705.67,1705.67,0,0,1-338.95,5.94q-27.93-2.26-89.38-14.66c-109.45-22-262.13-83.79-273-215.35C38.57,750.53,174,624.32,284.27,543.7A1464.69,1464.69,0,0,1,464.2,431.47a2,2,0,0,1,2.89,1.46Q478,511.32,496.17,587.71a4.54,4.54,0,0,1-1.86,4.8c-74.24,50.59-148.24,107.32-193.8,187.38A201.68,201.68,0,0,0,283,821.64Z"/><path class="cls-1" d="M2141.81,366.93q58.05,31.68,97.3,82.84c94.76,123.72,31.1,259.05-68,351.83q-75.95,71.13-170.43,126.61c-160.13,94.17-327.94,161.2-505.85,210.24q-304.2,83.85-616.19,93.38c-130.18,4-259.16-1.31-385.58-20.88q-130-20.15-246-68.18a.6.6,0,0,1-.44-.52l-.47-1.9a.6.6,0,0,1,.75-.71q31.44,8.79,51.22,12.52c121,22.66,245.58,27.77,368.67,20.24A2611.21,2611.21,0,0,0,1243,1071.66q106.42-31.2,209.72-68.61A2049.29,2049.29,0,0,0,1793,843.35c81-47.57,163.81-106.6,228.23-171.85,56.53-57.24,103.12-121.94,119.32-199.58a252,252,0,0,0-.08-104,.91.91,0,0,1,1.31-1Z"/><path class="cls-1" d="M1176.45,821.17c38.19,12,64,53.6,75.67,90.8a3,3,0,0,1-2.14,3.76l-190.19,45a1.92,1.92,0,0,1-2.34-2.1c7.25-55.51,40-162.31,119-137.43Z"/><path class="cls-1" d="M1372.91,1505.29c49.16,2.62,98.72-120.35,112.51-158.46q31.14-86.22,55.26-164.37a4.91,4.91,0,0,1,3.37-3.44l84.62-27.93a1.94,1.94,0,0,1,2.45,2.42q-42.12,138.27-87,251.08c-24.33,61.09-61.41,120.83-116.2,154-40.36,24.4-94.36,23.65-120.07-21a222.73,222.73,0,0,1-19.33-44.73A2244.7,2244.7,0,0,1,1226.73,1249a1.87,1.87,0,0,1,1.46-2.18l50.51-9.43a3.8,3.8,0,0,1,4.44,3q17.53,101.2,44.37,201.45c5.43,20.4,18.46,62,45.4,63.38Z"/><path class="cls-1" d="M947,1502c38.9,6.34,53.36-47.93,60.85-76.26a1074,1074,0,0,0,28.72-152.36,2.66,2.66,0,0,1,2.5-2.37l52.76-4.12a2.22,2.22,0,0,1,2.38,2.57,1739.59,1739.59,0,0,1-42.59,194.2q-9.91,35.17-21,64.06c-8.8,22.81-28.68,43.34-53.8,46.31-44.65,5.31-91.43-19.53-119.2-55q-22.77-29.18-36-53.12-46.77-84.33-78.56-181.13a.78.78,0,0,1,.71-1h58a3.59,3.59,0,0,1,3.72,2.66c22.66,65.24,52.69,129.9,93.61,180.88,11.06,13.83,29.2,31.69,48,34.74Z"/><text class="cls-3" transform="translate(0 1922.87)">Dental Clinic</text><text class="cls-4" transform="translate(120.63 2227.63)">By Sevenunique</text></g></g></svg>